<svg width="481" height="482" viewBox="0 0 481 482" fill="none" xmlns="http://www.w3.org/2000/svg">
<path d="M476.99 298.802C461.816 284.147 461.083 266.377 466.172 246.175C468.201 238.131 472.257 180.031 472.257 177.975C472.257 167.82 472.866 147.499 471.445 138.049C465.389 97.7974 455.265 88.7788 432.173 65.6893C410.378 43.8944 380.062 29.2344 350.887 18.6351C342.101 15.4423 333.008 13.0979 324.023 10.499C295.399 2.22473 263.761 0.704679 240.466 0.578613H240.449C217.153 0.704679 185.518 2.22473 156.891 10.499C147.906 13.0979 138.813 15.4423 130.027 18.6351C100.852 29.2344 70.5358 43.8944 48.741 65.6893C25.6515 88.7788 15.525 97.7974 9.46902 138.049C8.04836 147.499 12.7128 238.131 14.7395 246.175C19.8331 266.377 19.0985 284.147 3.92454 298.802C-0.686566 303.256 -0.703561 307.494 1.54381 312.808C5.33791 321.773 7.35256 341.718 12.6182 349.896C18.33 358.769 30.9439 367.278 36.115 370.646C38.3793 372.12 47.107 376.847 49.2234 377.778C52.6175 379.267 80.5072 382.428 84.4637 382.428C88.1148 382.428 128.172 386.731 128.172 405.825C128.172 417.865 126.371 420.304 128.96 432.273C129.932 436.772 135.542 457.403 135.244 458.414C135.036 459.112 134.997 467.75 134.97 468.478C134.888 470.701 134.939 472.963 135.586 475.091C136.233 477.222 137.538 479.225 139.479 480.313C141.792 481.61 146.292 481.453 148.934 481.213C149.974 481.121 151.07 480.999 151.914 480.384C152.425 480.01 152.855 467.346 153.419 461.193C153.681 458.334 154.326 459.515 154.387 459.224C154.426 459.343 155.163 458.535 155.468 461.471C156.074 467.278 156.455 478.847 156.641 479.012C157.209 479.511 158.023 479.584 158.78 479.632C160.525 479.744 163.473 479.836 165.034 479.045C165.716 478.699 166.31 478.199 166.988 477.843C168.477 477.062 169.105 477.038 170.744 476.657C171.248 476.541 171.762 476.379 172.145 476.03C172.569 475.637 172.775 475.065 172.889 474.5C173.103 473.443 173.384 472.33 173.064 471.3C172.94 470.907 172.397 460.846 172.511 455.326C172.577 452.033 173.352 452.218 173.275 451.888C173.425 452.414 173.755 452.256 174.14 455.418C174.838 461.154 175.723 471.608 176.065 472.912C176.203 473.426 176 474.01 176.264 474.478C176.64 475.145 177.522 475.404 178.3 475.322C179.079 475.239 179.794 474.89 180.519 474.604C182.352 473.879 183.219 473.549 185.195 473.642C187.115 473.734 188.054 474.189 189.734 473.28C191.29 472.439 192.034 470.606 192.076 468.878C192.09 468.255 191.865 459.527 192.158 454.858C192.369 451.505 193.154 451.83 193.05 451.391C193.22 451.364 193.346 452.906 193.38 453.183C193.617 455.11 195.135 470.483 196.619 471.741C198.09 472.987 200.202 473.035 202.132 473.019C204.779 472.997 205.165 472.977 207.812 472.955C208.605 472.951 209.415 472.941 210.164 472.672C210.884 472.415 211.504 471.932 212.035 471.382C213.427 469.94 214.295 457.709 215.063 451.599C215.417 448.797 216.101 450.295 216.183 449.359C216.203 449.946 216.804 449.02 217.02 451.973C217.398 457.137 217.485 467.219 217.558 468.243C217.616 469.035 217.718 469.906 218.317 470.446C218.705 470.793 219.236 470.943 219.754 471.033C223.677 471.709 228.802 469.675 232.742 470.25C234.366 470.487 235.98 471.169 237.593 470.863C238.72 470.65 239.013 459.479 239.462 453.183C239.695 449.876 240.332 449.609 240.373 449.323C241.314 448.453 241.006 452.545 241.045 453.556C241.164 454.387 241.603 470.538 243.321 470.863C244.934 471.169 246.548 470.487 248.173 470.25C252.112 469.675 257.237 471.709 261.16 471.033C261.679 470.943 262.212 470.793 262.597 470.446C263.196 469.906 263.298 469.035 263.356 468.243C263.429 467.232 263.388 457.575 263.763 452.438C263.987 449.403 264.711 449.958 264.733 449.359C264.816 450.314 265.063 449.374 265.427 452.252C266.2 458.346 267.499 469.952 268.879 471.382C269.41 471.932 270.03 472.415 270.75 472.672C271.5 472.941 272.309 472.951 273.104 472.955C275.749 472.977 276.137 472.997 278.782 473.019C280.712 473.035 282.824 472.987 284.295 471.741C285.209 470.965 285.844 459.886 286.579 454.208C287.035 450.664 287.798 451.381 287.864 451.391C287.764 451.81 287.895 451.02 288.094 454.208C288.388 458.957 288.824 468.238 288.839 468.878C288.88 470.606 289.624 472.439 291.18 473.28C292.861 474.189 293.799 473.734 295.719 473.642C297.695 473.549 298.563 473.879 300.395 474.604C301.12 474.89 301.835 475.239 302.614 475.322C303.394 475.404 304.277 475.145 304.65 474.478C304.914 474.01 304.711 473.426 304.846 472.912C305.164 471.717 305.933 461.113 306.594 455.604C307.055 451.786 307.465 452.494 307.639 451.888C307.552 452.259 308.192 452.123 308.274 455.978C308.388 461.263 307.964 470.936 307.853 471.3C307.53 472.33 307.811 473.443 308.025 474.5C308.139 475.065 308.345 475.637 308.771 476.03C309.152 476.379 309.666 476.541 310.17 476.657C311.809 477.038 312.439 477.062 313.928 477.843C314.604 478.199 315.198 478.699 315.88 479.045C317.441 479.836 320.389 479.744 322.134 479.632C322.891 479.584 323.705 479.511 324.273 479.012C324.457 478.852 324.898 468.196 325.502 462.402C325.824 459.306 326.486 459.345 326.527 459.224C326.59 459.525 327.366 458.722 327.643 461.75C328.21 467.901 328.498 480.018 329 480.384C329.844 480.999 330.94 481.121 331.98 481.213C334.622 481.453 339.122 481.61 341.437 480.313C343.377 479.225 344.683 477.222 345.331 475.091C345.975 472.963 346.026 470.701 345.946 468.478C345.92 467.75 345.876 459.112 345.672 458.414C345.374 457.403 350.982 436.772 351.956 432.273C354.546 420.304 352.742 417.865 352.742 405.825C352.742 386.731 392.048 382.428 396.45 382.428C400.54 382.428 428.297 379.267 431.691 377.778C433.807 376.847 442.535 372.12 444.799 370.646C449.97 367.278 461.939 359.048 468.298 349.896C473.845 341.907 475.576 321.773 479.37 312.808C481.618 307.494 481.601 303.256 476.99 298.802ZM273.131 377.65C272.591 380.862 269.444 384.925 266.493 386.147C262.21 387.917 257.315 386.823 254.054 382.299C251.758 379.119 248.977 376.292 246.514 373.228C240.878 366.221 239.77 366.274 234.402 373.228C231.997 376.34 229.156 379.116 226.86 382.299C223.599 386.823 218.705 387.917 214.421 386.147C211.47 384.925 208.326 380.862 207.785 377.647C203.569 352.565 207.608 328.508 219.769 306.262C223.924 298.659 226.729 288.865 236.242 284.901C237.612 284.329 239.035 283.948 240.456 283.75C241.876 283.946 243.3 284.329 244.672 284.901C252.927 288.339 258.248 300.296 261.145 305.595C273.306 327.844 277.345 352.565 273.131 377.65ZM255.676 275.354C255.676 272.018 264.888 263.405 275.454 267.133C279.194 268.454 292.519 268.256 295.341 267.911C300.007 267.344 305.625 265.194 309.13 262.82C322.675 253.651 321.822 251.142 333.919 240.216C348.703 226.862 361.685 211.536 375.979 197.61C382.018 191.726 389.037 186.587 396.324 182.332C401.566 179.27 420.17 177.602 426.219 176.463C433.099 175.166 438.891 178.274 438.593 185.389C438.244 193.646 437.732 202.129 435.548 210.033C429.068 233.493 423.928 261.615 410.55 282.043C409.176 284.145 402.087 290.986 399.898 292.356C388.726 299.353 378.67 305.945 366.163 309.104C364.456 309.535 354.499 304.034 352.204 303.118C334.15 295.905 323.393 295.117 304.114 293.428C300.783 293.137 270.479 284.509 255.676 275.354ZM225.236 275.354C210.433 284.509 180.131 293.137 176.797 293.428C157.521 295.117 146.765 295.905 128.71 303.118C126.415 304.034 116.46 309.535 114.751 309.104C102.244 305.945 92.1877 299.353 81.0163 292.356C78.8271 290.986 71.7408 284.145 70.3637 282.043C56.9862 261.615 51.8466 233.493 45.3663 210.033C43.1844 202.129 42.6704 193.646 42.3213 185.389C42.0231 178.274 47.8149 175.166 54.6952 176.463C60.7439 177.602 79.3484 179.27 84.5922 182.332C91.8774 186.587 98.8959 191.726 104.937 197.61C119.229 211.536 132.211 226.862 146.995 240.216C159.092 251.142 158.239 253.651 171.784 262.82C175.289 265.194 180.907 267.344 185.573 267.911C188.398 268.256 201.72 268.454 205.46 267.133C216.028 263.405 225.236 272.394 225.236 275.354Z" fill="black"/>
</svg>
