<svg width="124" height="40" viewBox="0 0 124 40" fill="none" xmlns="http://www.w3.org/2000/svg">
<path d="M0.5 6C0.5 2.96243 2.96243 0.5 6 0.5H118C121.038 0.5 123.5 2.96243 123.5 6V39.5H6C2.96244 39.5 0.5 37.0376 0.5 34V6Z" fill="#FF9601"/>
<path d="M12.4999 15H23.4999C23.7652 15 24.0195 15.1054 24.2071 15.2929C24.3946 15.4804 24.4999 15.7348 24.4999 16V25.925C24.5019 26.1163 24.448 26.304 24.3447 26.465C24.2414 26.626 24.0934 26.7533 23.9187 26.8313C23.789 26.8973 23.6455 26.9316 23.4999 26.9313C23.2641 26.9305 23.0361 26.8464 22.8562 26.6938L20.8687 25.025L12.4999 25C12.2347 25 11.9804 24.8946 11.7928 24.7071C11.6053 24.5196 11.4999 24.2652 11.4999 24V16C11.4999 15.7348 11.6053 15.4804 11.7928 15.2929C11.9804 15.1054 12.2347 15 12.4999 15ZM20.9999 20.75C21.1483 20.75 21.2933 20.706 21.4166 20.6236C21.54 20.5412 21.6361 20.4241 21.6929 20.287C21.7496 20.15 21.7645 19.9992 21.7355 19.8537C21.7066 19.7082 21.6352 19.5746 21.5303 19.4697C21.4254 19.3648 21.2918 19.2934 21.1463 19.2644C21.0008 19.2355 20.85 19.2503 20.7129 19.3071C20.5759 19.3639 20.4588 19.46 20.3763 19.5833C20.2939 19.7067 20.2499 19.8517 20.2499 20C20.2499 20.1989 20.329 20.3897 20.4696 20.5303C20.6103 20.671 20.801 20.75 20.9999 20.75ZM17.9999 20.75C18.1483 20.75 18.2933 20.706 18.4166 20.6236C18.54 20.5412 18.6361 20.4241 18.6929 20.287C18.7496 20.15 18.7645 19.9992 18.7355 19.8537C18.7066 19.7082 18.6352 19.5746 18.5303 19.4697C18.4254 19.3648 18.2918 19.2934 18.1463 19.2644C18.0008 19.2355 17.85 19.2503 17.7129 19.3071C17.5759 19.3639 17.4588 19.46 17.3763 19.5833C17.2939 19.7067 17.2499 19.8517 17.2499 20C17.2499 20.1989 17.329 20.3897 17.4696 20.5303C17.6103 20.671 17.801 20.75 17.9999 20.75ZM14.9999 20.75C15.1483 20.75 15.2933 20.706 15.4166 20.6236C15.54 20.5412 15.6361 20.4241 15.6929 20.287C15.7496 20.15 15.7645 19.9992 15.7355 19.8537C15.7066 19.7082 15.6352 19.5746 15.5303 19.4697C15.4254 19.3648 15.2917 19.2934 15.1463 19.2644C15.0008 19.2355 14.85 19.2503 14.7129 19.3071C14.5759 19.3639 14.4588 19.46 14.3763 19.5833C14.2939 19.7067 14.2499 19.8517 14.2499 20C14.2499 20.1989 14.329 20.3897 14.4696 20.5303C14.6103 20.671 14.801 20.75 14.9999 20.75Z" fill="#0B0B0B"/>
<path d="M39.9907 17.726C39.9907 17.7727 39.972 17.8147 39.9347 17.852C39.9067 17.88 39.8693 17.894 39.8227 17.894H35.2447C35.198 17.894 35.1747 17.9173 35.1747 17.964V20.134C35.1747 20.1807 35.198 20.204 35.2447 20.204H38.2547C38.3013 20.204 38.3387 20.2227 38.3667 20.26C38.404 20.288 38.4227 20.3253 38.4227 20.372V21.73C38.4227 21.7767 38.404 21.8187 38.3667 21.856C38.3387 21.884 38.3013 21.898 38.2547 21.898H35.2447C35.198 21.898 35.1747 21.9213 35.1747 21.968V25.832C35.1747 25.8787 35.156 25.9207 35.1187 25.958C35.0907 25.986 35.0533 26 35.0067 26H33.3687C33.322 26 33.28 25.986 33.2427 25.958C33.2147 25.9207 33.2007 25.8787 33.2007 25.832V16.368C33.2007 16.3213 33.2147 16.284 33.2427 16.256C33.28 16.2187 33.322 16.2 33.3687 16.2H39.8227C39.8693 16.2 39.9067 16.2187 39.9347 16.256C39.972 16.284 39.9907 16.3213 39.9907 16.368V17.726ZM43.0951 18.692C43.7017 18.692 44.2431 18.7993 44.7191 19.014C45.1951 19.2193 45.5637 19.504 45.8251 19.868C46.0957 20.232 46.2311 20.638 46.2311 21.086V25.832C46.2311 25.8787 46.2124 25.9207 46.1751 25.958C46.1471 25.986 46.1097 26 46.0631 26H44.4251C44.3784 26 44.3364 25.986 44.2991 25.958C44.2711 25.9207 44.2571 25.8787 44.2571 25.832V25.37C44.2571 25.342 44.2477 25.3233 44.2291 25.314C44.2104 25.3047 44.1917 25.314 44.1731 25.342C43.7811 25.8553 43.1511 26.112 42.2831 26.112C41.5551 26.112 40.9671 25.9347 40.5191 25.58C40.0711 25.2253 39.8471 24.7027 39.8471 24.012C39.8471 23.2933 40.0991 22.738 40.6031 22.346C41.1071 21.9447 41.8257 21.744 42.7591 21.744H44.1871C44.2337 21.744 44.2571 21.7207 44.2571 21.674V21.366C44.2571 21.058 44.1637 20.82 43.9771 20.652C43.7904 20.4747 43.5104 20.386 43.1371 20.386C42.8477 20.386 42.6051 20.4373 42.4091 20.54C42.2224 20.6427 42.1011 20.7873 42.0451 20.974C42.0171 21.0767 41.9564 21.1233 41.8631 21.114L40.1691 20.89C40.0571 20.8713 40.0057 20.8293 40.0151 20.764C40.0524 20.372 40.2064 20.0173 40.4771 19.7C40.7571 19.3827 41.1211 19.1353 41.5691 18.958C42.0264 18.7807 42.5351 18.692 43.0951 18.692ZM42.8151 24.642C43.2164 24.642 43.5571 24.5347 43.8371 24.32C44.1171 24.1053 44.2571 23.83 44.2571 23.494V22.99C44.2571 22.9433 44.2337 22.92 44.1871 22.92H43.1791C42.7591 22.92 42.4277 22.9993 42.1851 23.158C41.9517 23.3167 41.8351 23.5407 41.8351 23.83C41.8351 24.082 41.9237 24.2827 42.1011 24.432C42.2784 24.572 42.5164 24.642 42.8151 24.642ZM47.7896 26C47.7429 26 47.7009 25.986 47.6636 25.958C47.6356 25.9207 47.6216 25.8787 47.6216 25.832V16.368C47.6216 16.3213 47.6356 16.284 47.6636 16.256C47.7009 16.2187 47.7429 16.2 47.7896 16.2H49.4276C49.4742 16.2 49.5116 16.2187 49.5396 16.256C49.5769 16.284 49.5956 16.3213 49.5956 16.368V25.832C49.5956 25.8787 49.5769 25.9207 49.5396 25.958C49.5116 25.986 49.4742 26 49.4276 26H47.7896ZM57.4095 21.66C57.4655 22.0147 57.4842 22.4113 57.4655 22.85C57.4562 22.962 57.3955 23.018 57.2835 23.018H52.9575C52.9015 23.018 52.8829 23.0413 52.9015 23.088C52.9295 23.2747 52.9809 23.4613 53.0555 23.648C53.2982 24.1707 53.7929 24.432 54.5395 24.432C55.1369 24.4227 55.6082 24.18 55.9535 23.704C55.9909 23.648 56.0329 23.62 56.0795 23.62C56.1075 23.62 56.1402 23.6387 56.1775 23.676L57.1855 24.67C57.2322 24.7167 57.2555 24.7587 57.2555 24.796C57.2555 24.8147 57.2369 24.852 57.1995 24.908C56.8915 25.2907 56.4949 25.5893 56.0095 25.804C55.5242 26.0093 54.9922 26.112 54.4135 26.112C53.6109 26.112 52.9295 25.93 52.3695 25.566C51.8189 25.202 51.4222 24.6933 51.1795 24.04C50.9835 23.5733 50.8855 22.962 50.8855 22.206C50.8855 21.6927 50.9555 21.24 51.0955 20.848C51.3102 20.1853 51.6835 19.658 52.2155 19.266C52.7569 18.874 53.3962 18.678 54.1335 18.678C55.0669 18.678 55.8135 18.9487 56.3735 19.49C56.9429 20.0313 57.2882 20.7547 57.4095 21.66ZM54.1475 20.386C53.5595 20.386 53.1722 20.6613 52.9855 21.212C52.9482 21.3333 52.9155 21.4827 52.8875 21.66C52.8875 21.7067 52.9109 21.73 52.9575 21.73H55.3795C55.4355 21.73 55.4542 21.7067 55.4355 21.66C55.3889 21.3893 55.3655 21.2587 55.3655 21.268C55.2815 20.988 55.1322 20.7733 54.9175 20.624C54.7122 20.4653 54.4555 20.386 54.1475 20.386ZM64.6488 26.112C63.9022 26.112 63.2535 25.9253 62.7028 25.552C62.1615 25.1787 61.7742 24.6653 61.5408 24.012C61.3822 23.5453 61.3028 22.9947 61.3028 22.36C61.3028 21.7347 61.3822 21.1933 61.5408 20.736C61.7648 20.1013 62.1522 19.602 62.7028 19.238C63.2535 18.874 63.9022 18.692 64.6488 18.692C65.3955 18.692 66.0488 18.8787 66.6088 19.252C67.1782 19.6253 67.5562 20.0967 67.7428 20.666C67.8175 20.89 67.8548 21.058 67.8548 21.17V21.198C67.8548 21.282 67.8082 21.3333 67.7148 21.352L66.1048 21.59H66.0768C65.9928 21.59 65.9368 21.5433 65.9088 21.45L65.8668 21.226C65.8015 20.9833 65.6568 20.7827 65.4328 20.624C65.2088 20.4653 64.9428 20.386 64.6348 20.386C64.3362 20.386 64.0842 20.4607 63.8788 20.61C63.6735 20.7593 63.5288 20.9647 63.4448 21.226C63.3422 21.506 63.2908 21.8887 63.2908 22.374C63.2908 22.8593 63.3375 23.242 63.4308 23.522C63.5148 23.802 63.6595 24.0213 63.8648 24.18C64.0795 24.3387 64.3362 24.418 64.6348 24.418C64.9242 24.418 65.1762 24.3433 65.3908 24.194C65.6148 24.0353 65.7688 23.8207 65.8528 23.55C65.8622 23.5313 65.8668 23.5033 65.8668 23.466C65.8762 23.4567 65.8808 23.4427 65.8808 23.424C65.8902 23.312 65.9555 23.2653 66.0768 23.284L67.6868 23.536C67.7802 23.5547 67.8268 23.606 67.8268 23.69C67.8268 23.7647 67.7988 23.9047 67.7428 24.11C67.5468 24.7353 67.1642 25.2253 66.5948 25.58C66.0348 25.9347 65.3862 26.112 64.6488 26.112ZM72.1003 26.112C71.3163 26.112 70.6443 25.9067 70.0843 25.496C69.5243 25.0853 69.1417 24.5253 68.9363 23.816C68.8057 23.3773 68.7403 22.9013 68.7403 22.388C68.7403 21.8373 68.8057 21.3427 68.9363 20.904C69.151 20.2133 69.5383 19.672 70.0983 19.28C70.6583 18.888 71.3303 18.692 72.1143 18.692C72.8797 18.692 73.533 18.888 74.0743 19.28C74.6157 19.6627 74.9983 20.1993 75.2223 20.89C75.3717 21.3567 75.4463 21.8467 75.4463 22.36C75.4463 22.864 75.381 23.3353 75.2503 23.774C75.045 24.502 74.6623 25.076 74.1023 25.496C73.5517 25.9067 72.8843 26.112 72.1003 26.112ZM72.1003 24.418C72.4083 24.418 72.6697 24.3247 72.8843 24.138C73.099 23.9513 73.253 23.6947 73.3463 23.368C73.421 23.0693 73.4583 22.7427 73.4583 22.388C73.4583 21.996 73.421 21.6647 73.3463 21.394C73.2437 21.0767 73.085 20.8293 72.8703 20.652C72.6557 20.4747 72.3943 20.386 72.0863 20.386C71.769 20.386 71.503 20.4747 71.2883 20.652C71.083 20.8293 70.9337 21.0767 70.8403 21.394C70.7657 21.618 70.7283 21.9493 70.7283 22.388C70.7283 22.808 70.761 23.1347 70.8263 23.368C70.9197 23.6947 71.0737 23.9513 71.2883 24.138C71.5123 24.3247 71.783 24.418 72.1003 24.418ZM80.4673 18.692C81.214 18.692 81.816 18.9207 82.2733 19.378C82.7306 19.8353 82.9593 20.456 82.9593 21.24V25.832C82.9593 25.8787 82.9406 25.9207 82.9033 25.958C82.8753 25.986 82.838 26 82.7913 26H81.1533C81.1066 26 81.0646 25.986 81.0273 25.958C80.9993 25.9207 80.9853 25.8787 80.9853 25.832V21.646C80.9853 21.2727 80.878 20.9693 80.6633 20.736C80.458 20.5027 80.1826 20.386 79.8373 20.386C79.492 20.386 79.212 20.5027 78.9973 20.736C78.792 20.9693 78.6893 21.2727 78.6893 21.646V25.832C78.6893 25.8787 78.6706 25.9207 78.6333 25.958C78.6053 25.986 78.568 26 78.5213 26H76.8833C76.8366 26 76.7946 25.986 76.7573 25.958C76.7293 25.9207 76.7153 25.8787 76.7153 25.832V18.972C76.7153 18.9253 76.7293 18.888 76.7573 18.86C76.7946 18.8227 76.8366 18.804 76.8833 18.804H78.5213C78.568 18.804 78.6053 18.8227 78.6333 18.86C78.6706 18.888 78.6893 18.9253 78.6893 18.972V19.462C78.6893 19.49 78.6986 19.5087 78.7173 19.518C78.736 19.5273 78.75 19.5227 78.7593 19.504C79.142 18.9627 79.7113 18.692 80.4673 18.692ZM87.5085 26.112C86.7245 26.112 86.0525 25.9067 85.4925 25.496C84.9325 25.0853 84.5499 24.5253 84.3445 23.816C84.2139 23.3773 84.1485 22.9013 84.1485 22.388C84.1485 21.8373 84.2139 21.3427 84.3445 20.904C84.5592 20.2133 84.9465 19.672 85.5065 19.28C86.0665 18.888 86.7385 18.692 87.5225 18.692C88.2879 18.692 88.9412 18.888 89.4825 19.28C90.0239 19.6627 90.4065 20.1993 90.6305 20.89C90.7799 21.3567 90.8545 21.8467 90.8545 22.36C90.8545 22.864 90.7892 23.3353 90.6585 23.774C90.4532 24.502 90.0705 25.076 89.5105 25.496C88.9599 25.9067 88.2925 26.112 87.5085 26.112ZM87.5085 24.418C87.8165 24.418 88.0779 24.3247 88.2925 24.138C88.5072 23.9513 88.6612 23.6947 88.7545 23.368C88.8292 23.0693 88.8665 22.7427 88.8665 22.388C88.8665 21.996 88.8292 21.6647 88.7545 21.394C88.6519 21.0767 88.4932 20.8293 88.2785 20.652C88.0639 20.4747 87.8025 20.386 87.4945 20.386C87.1772 20.386 86.9112 20.4747 86.6965 20.652C86.4912 20.8293 86.3419 21.0767 86.2485 21.394C86.1739 21.618 86.1365 21.9493 86.1365 22.388C86.1365 22.808 86.1692 23.1347 86.2345 23.368C86.3279 23.6947 86.4819 23.9513 86.6965 24.138C86.9205 24.3247 87.1912 24.418 87.5085 24.418ZM94.9935 26.098C94.3682 26.098 93.8222 26.0093 93.3555 25.832C92.8888 25.6547 92.5248 25.4073 92.2635 25.09C92.0115 24.7727 91.8855 24.4133 91.8855 24.012V23.872C91.8855 23.8253 91.8995 23.788 91.9275 23.76C91.9648 23.7227 92.0068 23.704 92.0535 23.704H93.6075C93.6542 23.704 93.6915 23.7227 93.7195 23.76C93.7568 23.788 93.7755 23.8253 93.7755 23.872V23.886C93.7755 24.0913 93.8875 24.2687 94.1115 24.418C94.3448 24.558 94.6342 24.628 94.9795 24.628C95.2968 24.628 95.5535 24.5673 95.7495 24.446C95.9455 24.3153 96.0435 24.1567 96.0435 23.97C96.0435 23.802 95.9595 23.676 95.7915 23.592C95.6235 23.508 95.3482 23.4193 94.9655 23.326C94.5268 23.214 94.1815 23.1067 93.9295 23.004C93.3322 22.7987 92.8562 22.5467 92.5015 22.248C92.1468 21.9493 91.9695 21.52 91.9695 20.96C91.9695 20.2693 92.2355 19.7233 92.7675 19.322C93.3088 18.9113 94.0228 18.706 94.9095 18.706C95.5068 18.706 96.0295 18.804 96.4775 19C96.9255 19.1867 97.2708 19.4527 97.5135 19.798C97.7655 20.1433 97.8915 20.5353 97.8915 20.974C97.8915 21.0207 97.8728 21.0627 97.8355 21.1C97.8075 21.128 97.7702 21.142 97.7235 21.142H96.2255C96.1788 21.142 96.1368 21.128 96.0995 21.1C96.0715 21.0627 96.0575 21.0207 96.0575 20.974C96.0575 20.7687 95.9502 20.596 95.7355 20.456C95.5302 20.316 95.2548 20.246 94.9095 20.246C94.6015 20.246 94.3495 20.302 94.1535 20.414C93.9575 20.526 93.8595 20.68 93.8595 20.876C93.8595 21.0627 93.9528 21.2027 94.1395 21.296C94.3355 21.3893 94.6575 21.4873 95.1055 21.59C95.2082 21.618 95.3248 21.6507 95.4555 21.688C95.5862 21.716 95.7262 21.7533 95.8755 21.8C96.5382 21.996 97.0608 22.248 97.4435 22.556C97.8262 22.864 98.0175 23.312 98.0175 23.9C98.0175 24.5907 97.7422 25.132 97.1915 25.524C96.6502 25.9067 95.9175 26.098 94.9935 26.098ZM102.315 26.112C101.568 26.112 100.92 25.9253 100.369 25.552C99.8275 25.1787 99.4402 24.6653 99.2069 24.012C99.0482 23.5453 98.9689 22.9947 98.9689 22.36C98.9689 21.7347 99.0482 21.1933 99.2069 20.736C99.4309 20.1013 99.8182 19.602 100.369 19.238C100.92 18.874 101.568 18.692 102.315 18.692C103.062 18.692 103.715 18.8787 104.275 19.252C104.844 19.6253 105.222 20.0967 105.409 20.666C105.484 20.89 105.521 21.058 105.521 21.17V21.198C105.521 21.282 105.474 21.3333 105.381 21.352L103.771 21.59H103.743C103.659 21.59 103.603 21.5433 103.575 21.45L103.533 21.226C103.468 20.9833 103.323 20.7827 103.099 20.624C102.875 20.4653 102.609 20.386 102.301 20.386C102.002 20.386 101.75 20.4607 101.545 20.61C101.34 20.7593 101.195 20.9647 101.111 21.226C101.008 21.506 100.957 21.8887 100.957 22.374C100.957 22.8593 101.004 23.242 101.097 23.522C101.181 23.802 101.326 24.0213 101.531 24.18C101.746 24.3387 102.002 24.418 102.301 24.418C102.59 24.418 102.842 24.3433 103.057 24.194C103.281 24.0353 103.435 23.8207 103.519 23.55C103.528 23.5313 103.533 23.5033 103.533 23.466C103.542 23.4567 103.547 23.4427 103.547 23.424C103.556 23.312 103.622 23.2653 103.743 23.284L105.353 23.536C105.446 23.5547 105.493 23.606 105.493 23.69C105.493 23.7647 105.465 23.9047 105.409 24.11C105.213 24.7353 104.83 25.2253 104.261 25.58C103.701 25.9347 103.052 26.112 102.315 26.112ZM109.766 26.112C108.982 26.112 108.31 25.9067 107.75 25.496C107.19 25.0853 106.808 24.5253 106.602 23.816C106.472 23.3773 106.406 22.9013 106.406 22.388C106.406 21.8373 106.472 21.3427 106.602 20.904C106.817 20.2133 107.204 19.672 107.764 19.28C108.324 18.888 108.996 18.692 109.78 18.692C110.546 18.692 111.199 18.888 111.74 19.28C112.282 19.6627 112.664 20.1993 112.888 20.89C113.038 21.3567 113.112 21.8467 113.112 22.36C113.112 22.864 113.047 23.3353 112.916 23.774C112.711 24.502 112.328 25.076 111.768 25.496C111.218 25.9067 110.55 26.112 109.766 26.112ZM109.766 24.418C110.074 24.418 110.336 24.3247 110.55 24.138C110.765 23.9513 110.919 23.6947 111.012 23.368C111.087 23.0693 111.124 22.7427 111.124 22.388C111.124 21.996 111.087 21.6647 111.012 21.394C110.91 21.0767 110.751 20.8293 110.536 20.652C110.322 20.4747 110.06 20.386 109.752 20.386C109.435 20.386 109.169 20.4747 108.954 20.652C108.749 20.8293 108.6 21.0767 108.506 21.394C108.432 21.618 108.394 21.9493 108.394 22.388C108.394 22.808 108.427 23.1347 108.492 23.368C108.586 23.6947 108.74 23.9513 108.954 24.138C109.178 24.3247 109.449 24.418 109.766 24.418Z" fill="#0B0B0B"/>
<path d="M0.5 6C0.5 2.96243 2.96243 0.5 6 0.5H118C121.038 0.5 123.5 2.96243 123.5 6V39.5H6C2.96244 39.5 0.5 37.0376 0.5 34V6Z" stroke="#3A3A3C"/>
</svg>
